HIERARCHY
ROOT joint_Root
{
	OFFSET 0.0 0.0 0.0
	CHANNELS 6 Xposition Yposition Zposition Zrotation Xrotation Yrotation 
	JOINT Hips
	{
		OFFSET 4.5925 91.4895 -427.239
		CHANNELS 6 Xposition Yposition Zposition Zrotation Xrotation Yrotation 
		JOINT Spine
		{
			OFFSET 15.7357 0.0 0.0
			CHANNELS 6 Xposition Yposition Zposition Zrotation Xrotation Yrotation 
			JOINT Chest
			{
				OFFSET 8.98455 -0.406207 0.0
				CHANNELS 6 Xposition Yposition Zposition Zrotation Xrotation Yrotation 
				JOINT Neck
				{
					OFFSET 16.3773 0.0 0.0
					CHANNELS 6 Xposition Yposition Zposition Zrotation Xrotation Yrotation 
					JOINT Head
					{
						OFFSET 6.45672 0.0 0.0
						CHANNELS 6 Xposition Yposition Zposition Zrotation Xrotation Yrotation 
						End Site
						{
							OFFSET 0.0 0.0 0.0
						}
					}
				}
				JOINT Shoulder_L
				{
					OFFSET 12.9942 -0.242716 4.98039
					CHANNELS 6 Xposition Yposition Zposition Zrotation Xrotation Yrotation 
					JOINT UpperArm_L
					{
						OFFSET 5.34809 0.0 0.0
						CHANNELS 6 Xposition Yposition Zposition Zrotation Xrotation Yrotation 
						JOINT LowerArm_L
						{
							OFFSET 24.3286 1.87007e-05 0.0
							CHANNELS 6 Xposition Yposition Zposition Zrotation Xrotation Yrotation 
							JOINT Hand_L
							{
								OFFSET 22.2916 0.0 0.0
								CHANNELS 6 Xposition Yposition Zposition Zrotation Xrotation Yrotation 
								End Site
								{
									OFFSET 0.0 0.0 0.0
								}
							}
						}
					}
				}
				JOINT Shoulder_R
				{
					OFFSET 12.9945 -0.242716 -4.98039
					CHANNELS 6 Xposition Yposition Zposition Zrotation Xrotation Yrotation 
					JOINT UpperArm_R
					{
						OFFSET -5.34813 0.0 0.0
						CHANNELS 6 Xposition Yposition Zposition Zrotation Xrotation Yrotation 
						JOINT LowerArm_R
						{
							OFFSET -24.3289 0.000322201 0.0
							CHANNELS 6 Xposition Yposition Zposition Zrotation Xrotation Yrotation 
							JOINT Hand_R
							{
								OFFSET -22.2915 -0.000108084 0.0
								CHANNELS 6 Xposition Yposition Zposition Zrotation Xrotation Yrotation 
								End Site
								{
									OFFSET 0.0 0.0 0.0
								}
							}
						}
					}
				}
			}
		}
		JOINT UpperLeg_L
		{
			OFFSET -2.19248 -6.46944 0.0
			CHANNELS 6 Xposition Yposition Zposition Zrotation Xrotation Yrotation 
			JOINT LowerLeg_L
			{
				OFFSET 39.0811 0.0 -1.23785e-05
				CHANNELS 6 Xposition Yposition Zposition Zrotation Xrotation Yrotation 
				JOINT Foot_L
				{
					OFFSET 40.9854 0.0 -1.26872e-05
					CHANNELS 6 Xposition Yposition Zposition Zrotation Xrotation Yrotation 
					JOINT Toes_L
					{
						OFFSET 11.7543 0.0 0.0
						CHANNELS 6 Xposition Yposition Zposition Zrotation Xrotation Yrotation 
						End Site
						{
							OFFSET 0.0 0.0 0.0
						}
					}
				}
			}
		}
		JOINT UpperLeg_R
		{
			OFFSET -2.19251 6.46944 0.0
			CHANNELS 6 Xposition Yposition Zposition Zrotation Xrotation Yrotation 
			JOINT LowerLeg_R
			{
				OFFSET -39.0811 -0.00228153 -0.0401928
				CHANNELS 6 Xposition Yposition Zposition Zrotation Xrotation Yrotation 
				JOINT Foot_R
				{
					OFFSET -40.9854 0.0 0.0
					CHANNELS 6 Xposition Yposition Zposition Zrotation Xrotation Yrotation 
					JOINT Toes_R
					{
						OFFSET -11.7543 0.0 0.0
						CHANNELS 6 Xposition Yposition Zposition Zrotation Xrotation Yrotation 
						End Site
						{
							OFFSET 0.0 0.0 0.0
						}
					}
				}
			}
		}
	}
}
MOTION
Frames:	8
Frame Time:	0.0333333
0.000000 0.000000 0.000000 0.000000 0.000000 -0.000000 -0.913675 85.700100 -1.548370 88.835100 -2.535420 11.535300 15.735700 0.000005 -0.000001 87.746400 81.336100 -87.501400 8.984550 -0.406207 -0.000000 9.550350 -0.673591 0.545909 16.377300 -0.000001 -0.000001 -0.706811 -1.427080 0.921850 6.456720 -0.000001 -0.000000 -8.923430 -0.263668 1.305300 12.994200 -0.242716 4.980390 -90.624900 1.741700 -70.257100 5.348090 -0.000007 -0.000001 -63.909500 14.887800 -12.417000 24.328600 0.000019 0.000005 3.502770 11.042100 -17.733500 22.291600 -0.000001 0.000005 14.371700 5.220970 2.189250 12.994500 -0.242716 -4.980390 88.279800 7.316570 -76.728300 -5.348130 -0.000001 -0.000004 -61.351500 8.250000 -14.219400 -24.328900 0.000322 -0.000009 -1.853080 -11.908700 -8.882310 -22.291500 -0.000108 -0.000004 13.632800 5.484270 -5.866590 -2.192480 -6.469440 -0.000000 -173.097000 -12.737000 -10.440600 39.081100 -0.000007 -0.000012 -0.396488 0.308265 52.136200 40.985400 -0.000006 -0.000013 1.239930 5.966350 -79.792200 11.754300 -0.000000 0.000003 -0.000304 -0.002628 -16.675400 -2.192510 6.469440 -0.000001 177.670000 12.692600 169.640000 -39.081100 -0.002282 -0.040193 0.062413 -0.046465 51.859300 -40.985400 0.000008 0.000006 6.986390 4.897450 -80.349000 -11.754300 -0.000006 -0.000006 -0.060175 -0.076371 -16.746200
0.000000 0.000000 0.000000 0.000000 0.000000 -0.000000 -0.983518 86.946600 -0.268746 88.975300 -2.292180 11.742400 15.735700 0.000005 -0.000001 86.498600 82.436500 -86.445300 8.984550 -0.406207 -0.000000 7.333870 -0.920633 0.165424 16.377300 -0.000001 -0.000001 0.711327 -0.968236 1.081750 6.456720 -0.000001 -0.000000 -8.082970 0.303380 1.384670 12.994200 -0.242716 4.980390 -89.942900 -0.153504 -69.696500 5.348090 -0.000007 -0.000001 -58.678000 -1.139250 -11.590100 24.328600 0.000019 0.000005 3.368250 16.762400 -11.543100 22.291600 -0.000001 0.000005 13.618400 5.164310 3.567210 12.994500 -0.242716 -4.980390 88.676200 5.223380 -75.754000 -5.348130 -0.000001 -0.000004 -57.177400 -7.886070 -15.440200 -24.328900 0.000322 -0.000009 -0.016792 -6.681020 -0.083649 -22.291500 -0.000108 -0.000004 10.578600 5.409520 -3.268320 -2.192480 -6.469440 -0.000000 -173.370000 -11.479800 -7.003090 39.081100 -0.000007 -0.000012 -0.373860 0.342626 47.497000 40.985400 -0.000006 -0.000013 0.535868 5.170870 -78.425900 11.754300 -0.000000 0.000003 -0.000276 -0.002423 -16.668100 -2.192510 6.469440 -0.000001 177.118000 13.115600 173.046000 -39.081100 -0.002282 -0.040193 0.053448 -0.045971 47.513300 -40.985400 0.000008 0.000006 6.770640 5.524430 -78.812200 -11.754300 -0.000006 -0.000006 -0.166424 -0.209287 -17.026900
0.000000 0.000000 0.000000 0.000000 0.000000 -0.000000 -1.042560 88.510100 0.805029 89.133100 -1.928900 10.158100 15.735700 0.000005 -0.000001 85.082600 84.442700 -85.233600 8.984550 -0.406207 -0.000000 3.306720 -0.945774 -0.274461 16.377300 -0.000001 -0.000001 2.786840 -0.970654 1.044820 6.456720 -0.000001 -0.000000 -6.733430 0.141843 1.730040 12.994200 -0.242716 4.980390 -88.979500 -2.644720 -68.898700 5.348090 -0.000007 -0.000001 -52.025400 -23.426900 -13.644700 24.328600 0.000019 0.000005 2.425000 17.652800 -7.948700 22.291600 -0.000001 0.000005 17.979800 4.966170 7.990130 12.994500 -0.242716 -4.980390 89.290800 2.611720 -74.795600 -5.348130 -0.000001 -0.000004 -50.829900 -26.897500 -17.917100 -24.328900 0.000322 -0.000009 -0.000580 -4.141340 -0.000029 -22.291500 -0.000108 -0.000004 14.892800 5.302370 -0.043808 -2.192480 -6.469440 -0.000000 -174.341000 -9.536600 -4.858800 39.081100 -0.000007 -0.000012 -0.335850 0.383527 41.209000 40.985400 -0.000006 -0.000013 -0.402924 3.563560 -76.009400 11.754300 -0.000000 0.000003 -0.000218 -0.001992 -16.652500 -2.192510 6.469440 -0.000001 177.165000 13.239600 175.116000 -39.081100 -0.002282 -0.040193 0.042265 -0.043874 41.627600 -40.985400 0.000008 0.000006 6.267590 5.746070 -76.159600 -11.754300 -0.000006 -0.000006 -0.144618 -0.190322 -17.465300
0.000000 0.000000 0.000000 0.000000 0.000000 -0.000000 -1.119700 89.684300 1.549300 89.134200 -1.801180 7.881690 15.735700 0.000005 -0.000001 84.569300 86.517400 -84.854600 8.984550 -0.406207 -0.000000 -0.833634 -0.637648 -0.574964 16.377300 -0.000001 -0.000001 4.487860 -0.944695 0.755892 6.456720 -0.000001 -0.000000 -5.260820 -0.429257 2.195730 12.994200 -0.242716 4.980390 -87.968600 -4.999090 -67.854700 5.348090 -0.000007 -0.000001 -45.360100 -40.909400 -21.179200 24.328600 0.000019 0.000005 1.697820 11.252700 -8.646890 22.291600 -0.000001 0.000005 19.249000 4.951970 8.312410 12.994500 -0.242716 -4.980390 89.895700 0.361844 -73.879200 -5.348130 -0.000001 -0.000004 -41.833800 -39.799200 -22.911600 -24.328900 0.000322 -0.000009 -0.003438 -9.520610 -0.000056 -22.291500 -0.000108 -0.000004 14.527700 5.297790 0.105230 -2.192480 -6.469440 -0.000000 -174.753000 -9.283760 -4.023590 39.081100 -0.000007 -0.000012 -0.279049 0.385709 35.885200 40.985400 -0.000006 -0.000013 -0.717831 3.319170 -73.834300 11.754300 -0.000000 0.000003 -0.000168 -0.001596 -16.638100 -2.192510 6.469440 -0.000001 177.592000 13.567900 175.760000 -39.081100 -0.002282 -0.040193 0.034581 -0.042076 36.640000 -40.985400 0.000008 0.000006 6.127550 6.163390 -73.817000 -11.754300 -0.000006 -0.000006 -0.038183 -0.073955 -17.895600
0.000000 0.000000 0.000000 0.000000 0.000000 -0.000000 -1.121230 90.273700 2.087270 89.169400 -1.988810 6.495420 15.735700 0.000005 -0.000001 83.338800 88.118200 -83.678600 8.984550 -0.406207 -0.000000 -4.028900 -0.401327 -0.694047 16.377300 -0.000001 -0.000001 5.871210 -0.719530 0.333374 6.456720 -0.000001 -0.000000 -4.107040 -0.998545 2.522050 12.994200 -0.242716 4.980390 -86.971000 -7.267820 -67.300700 5.348090 -0.000007 -0.000001 -36.573900 -49.145800 -29.703200 24.328600 0.000019 0.000005 0.283239 1.455720 -11.263700 22.291600 -0.000001 0.000005 16.001400 5.106650 4.908820 12.994500 -0.242716 -4.980390 90.891400 -3.045710 -73.675200 -5.348130 -0.000001 -0.000004 -33.355300 -47.076800 -29.313400 -24.328900 0.000322 -0.000009 -0.231966 -18.247000 -0.708782 -22.291500 -0.000108 -0.000004 11.306800 5.345170 -1.241120 -2.192480 -6.469440 -0.000000 -174.691000 -10.662500 -3.425450 39.081100 -0.000007 -0.000012 -0.241353 0.374859 32.775900 40.985400 -0.000006 -0.000013 -0.529666 4.415850 -72.637700 11.754300 -0.000000 0.000003 -0.000122 -0.001215 -16.624000 -2.192510 6.469440 -0.000001 177.531000 14.527300 176.245000 -39.081100 -0.002282 -0.040193 0.027308 -0.036073 33.652100 -40.985400 0.000008 0.000006 6.130740 7.500450 -72.758000 -11.754300 -0.000006 -0.000006 -0.002546 -0.035357 -18.010900
0.000000 0.000000 0.000000 0.000000 0.000000 -0.000000 -1.073900 90.513700 2.412190 89.157000 -2.138340 6.199470 15.735700 0.000005 -0.000001 80.579800 88.865900 -80.929400 8.984550 -0.406207 -0.000000 -5.529460 -0.330238 -0.715829 16.377300 -0.000001 -0.000001 6.301960 -0.890890 0.558547 6.456720 -0.000001 -0.000000 -3.841330 -1.217540 2.482080 12.994200 -0.242716 4.980390 -85.361100 -10.984000 -66.933100 5.348090 -0.000007 -0.000001 -23.898600 -50.980300 -31.685400 24.328600 0.000019 0.000005 -2.529360 -7.279620 -19.165100 22.291600 -0.000001 0.000005 15.446100 5.245130 1.577710 12.994500 -0.242716 -4.980390 92.257800 -7.752860 -73.708700 -5.348130 -0.000001 -0.000004 -25.182700 -50.575800 -33.584200 -24.328900 0.000322 -0.000009 -5.298700 -27.657200 -11.274400 -22.291500 -0.000108 -0.000004 12.873000 5.428390 -3.825130 -2.192480 -6.469440 -0.000000 -174.514000 -11.615900 -2.706370 39.081100 -0.000007 -0.000012 -0.227277 0.373046 31.352100 40.985400 -0.000006 -0.000013 -0.365112 5.209930 -72.170700 11.754300 -0.000000 0.000003 -0.000106 -0.001084 -16.619100 -2.192510 6.469440 -0.000001 177.211000 15.641100 176.943000 -39.081100 -0.002282 -0.040193 0.022792 -0.030891 32.255800 -40.985400 0.000008 0.000006 6.257430 8.889530 -72.394900 -11.754300 -0.000006 -0.000006 -0.002795 -0.038259 -18.129000
0.000000 0.000000 0.000000 0.000000 0.000000 -0.000000 -1.021700 90.599100 2.429190 89.036400 -2.115520 6.529700 15.735700 0.000005 -0.000001 82.444800 88.780200 -82.704300 8.984550 -0.406207 -0.000000 -5.348310 -0.290694 -0.533067 16.377300 -0.000001 -0.000001 5.523050 -1.361780 0.994986 6.456720 -0.000001 -0.000000 -4.414320 -1.337290 2.218180 12.994200 -0.242716 4.980390 -83.818900 -13.748800 -65.503400 5.348090 -0.000007 -0.000001 -12.405800 -54.909600 -32.802900 24.328600 0.000019 0.000005 -3.780950 -6.326640 -31.013800 22.291600 -0.000001 0.000005 18.827500 5.318360 -0.435870 12.994500 -0.242716 -4.980390 93.616400 -11.633500 -72.602200 -5.348130 -0.000001 -0.000004 -18.428800 -56.311000 -37.560100 -24.328900 0.000322 -0.000009 -12.540400 -25.746500 -27.138000 -22.291500 -0.000108 -0.000004 18.190600 5.528520 -7.619180 -2.192480 -6.469440 -0.000000 -174.437000 -11.237200 -2.164070 39.081100 -0.000007 -0.000012 -0.223337 0.372403 30.952200 40.985400 -0.000006 -0.000013 -0.431405 4.908680 -72.000900 11.754300 -0.000000 0.000003 -0.000111 -0.001128 -16.620700 -2.192510 6.469440 -0.000001 177.027000 16.235300 177.674000 -39.081100 -0.002282 -0.040193 0.020636 -0.028134 31.644600 -40.985400 0.000008 0.000006 6.288220 9.541730 -72.236900 -11.754300 -0.000006 -0.000006 -0.002771 -0.037979 -18.117600
0.000000 0.000000 0.000000 0.000000 0.000000 -0.000000 -0.956453 90.585800 2.287990 88.972200 -1.761010 7.052870 15.735700 0.000005 -0.000001 83.757800 88.540700 -83.966600 8.984550 -0.406207 -0.000000 -4.865230 -0.294036 -0.430436 16.377300 -0.000001 -0.000001 4.988180 -1.888100 1.543590 6.456720 -0.000001 -0.000000 -4.419630 -1.604510 1.910970 12.994200 -0.242716 4.980390 -82.441200 -15.097000 -63.004500 5.348090 -0.000007 -0.000001 -10.308800 -63.373300 -42.064800 24.328600 0.000019 0.000005 0.614306 0.637605 -43.046200 22.291600 -0.000001 0.000005 20.846800 5.340980 -1.098850 12.994500 -0.242716 -4.980390 95.088600 -13.951300 -69.732900 -5.348130 -0.000001 -0.000004 -20.987000 -64.259500 -50.335100 -24.328900 0.000322 -0.000009 -11.179000 -13.254900 -40.826600 -22.291500 -0.000108 -0.000004 23.742100 5.587240 -10.459300 -2.192480 -6.469440 -0.000000 -174.399000 -10.774300 -1.894400 39.081100 -0.000007 -0.000012 -0.225580 0.373076 31.159500 40.985400 -0.000006 -0.000013 -0.390406 4.820040 -71.996200 11.754300 -0.000000 0.000003 -0.000116 -0.001170 -16.622300 -2.192510 6.469440 -0.000001 176.779000 16.830000 178.311000 -39.081100 -0.002282 -0.040193 0.019274 -0.026079 31.490200 -40.985400 0.000008 0.000006 6.288120 9.826580 -72.385400 -11.754300 -0.000006 -0.000006 -0.002898 -0.039442 -18.177100
